<svg width="22" height="22" viewBox="0 0 22 22" fill="none" xmlns="http://www.w3.org/2000/svg">
<path d="M10.628 8.38095V5.2381H7.43961V3.14286H10.628V0H12.7536V3.14286H15.942V5.2381H12.7536V8.38095H10.628ZM6.37681 22C5.79227 22 5.29187 21.7948 4.8756 21.3845C4.45934 20.9742 4.25121 20.481 4.25121 19.9048C4.25121 19.3286 4.45934 18.8353 4.8756 18.425C5.29187 18.0147 5.79227 17.8095 6.37681 17.8095C6.96135 17.8095 7.46175 18.0147 7.87802 18.425C8.29428 18.8353 8.50242 19.3286 8.50242 19.9048C8.50242 20.481 8.29428 20.9742 7.87802 21.3845C7.46175 21.7948 6.96135 22 6.37681 22ZM17.0048 22C16.4203 22 15.9199 21.7948 15.5036 21.3845C15.0874 20.9742 14.8792 20.481 14.8792 19.9048C14.8792 19.3286 15.0874 18.8353 15.5036 18.425C15.9199 18.0147 16.4203 17.8095 17.0048 17.8095C17.5894 17.8095 18.0898 18.0147 18.506 18.425C18.9223 18.8353 19.1304 19.3286 19.1304 19.9048C19.1304 20.481 18.9223 20.9742 18.506 21.3845C18.0898 21.7948 17.5894 22 17.0048 22ZM0 3.14286V1.04762H3.48068L7.99758 10.4762H15.4372L19.5821 3.14286H22L17.3237 11.4714C17.1288 11.8206 16.8676 12.0913 16.5399 12.2833C16.2122 12.4754 15.8535 12.5714 15.4638 12.5714H7.54589L6.37681 14.6667H19.1304V16.7619H6.37681C5.57971 16.7619 4.97303 16.4214 4.55676 15.7405C4.1405 15.0595 4.12721 14.3698 4.51691 13.6714L5.95169 11.1048L2.1256 3.14286H0Z" fill="#FF6F1E"/>
</svg>
