<svg width="31" height="31" viewBox="0 0 31 31" fill="none" xmlns="http://www.w3.org/2000/svg">
<path d="M10.0165 29.0002C10.7606 29.0002 11.3638 28.3943 11.3638 27.6468C11.3638 26.8994 10.7606 26.2935 10.0165 26.2935C9.2724 26.2935 8.66919 26.8994 8.66919 27.6468C8.66919 28.3943 9.2724 29.0002 10.0165 29.0002Z" stroke="#6D625A" stroke-width="2.94881" stroke-linecap="round" stroke-linejoin="round"/>
<path d="M24.8367 29.0002C25.5808 29.0002 26.184 28.3943 26.184 27.6468C26.184 26.8994 25.5808 26.2935 24.8367 26.2935C24.0926 26.2935 23.4893 26.8994 23.4893 27.6468C23.4893 28.3943 24.0926 29.0002 24.8367 29.0002Z" stroke="#6D625A" stroke-width="2.94881" stroke-linecap="round" stroke-linejoin="round"/>
<path d="M2 2H4.69461L8.27844 18.809C8.40991 19.4246 8.7509 19.9749 9.24272 20.3652C9.73455 20.7555 10.3464 20.9614 10.9731 20.9473H24.1497C24.763 20.9464 25.3575 20.7353 25.8352 20.3489C26.3129 19.9626 26.6451 19.4242 26.7769 18.8225L29 8.76691H6.13623" stroke="#6D625A" stroke-width="2.94881" stroke-linecap="round" stroke-linejoin="round"/>
</svg>
