<svg width="154" height="154" viewBox="0 0 154 154" fill="none" xmlns="http://www.w3.org/2000/svg">
<path d="M46.274 153.916C42.0393 153.916 38.4142 152.41 35.3986 149.397C32.383 146.384 30.8752 142.763 30.8752 138.532C30.8752 134.301 32.383 130.679 35.3986 127.666C38.4142 124.654 42.0393 123.147 46.274 123.147C50.5087 123.147 54.1338 124.654 57.1494 127.666C60.1651 130.679 61.6729 134.301 61.6729 138.532C61.6729 142.763 60.1651 146.384 57.1494 149.397C54.1338 152.41 50.5087 153.916 46.274 153.916ZM123.268 153.916C119.034 153.916 115.408 152.41 112.393 149.397C109.377 146.384 107.869 142.763 107.869 138.532C107.869 134.301 109.377 130.679 112.393 127.666C115.408 124.654 119.034 123.147 123.268 123.147C127.503 123.147 131.128 124.654 134.144 127.666C137.159 130.679 138.667 134.301 138.667 138.532C138.667 142.763 137.159 146.384 134.144 149.397C131.128 152.41 127.503 153.916 123.268 153.916ZM39.7295 30.8396L58.2081 69.3011H112.104L133.277 30.8396H39.7295ZM32.4151 15.4549H145.982C148.933 15.4549 151.179 16.769 152.719 19.3973C154.258 22.0255 154.323 24.6857 152.911 27.378L125.578 76.6088C124.167 79.1729 122.274 81.1601 119.9 82.5703C117.526 83.9806 114.927 84.6857 112.104 84.6857H54.7434L46.274 100.07H138.667V115.455H46.274C40.4994 115.455 36.1364 112.923 33.185 107.859C30.2336 102.795 30.1052 97.7626 32.8 92.7626L43.1942 73.9165L15.4763 15.4549H0.0774819V0.0703285H25.1006L32.4151 15.4549Z" fill="#453E38"/>
</svg>
