<svg width="30" height="30" viewBox="0 0 30 30" fill="none" xmlns="http://www.w3.org/2000/svg">
<path d="M0 10.6667C0 6.93298 0 5.06614 0.726621 3.64006C1.36578 2.38565 2.38565 1.36578 3.64006 0.726621C5.06614 0 6.93298 0 10.6667 0H19.3333C23.067 0 24.9339 0 26.3599 0.726621C27.6144 1.36578 28.6342 2.38565 29.2734 3.64006C30 5.06614 30 6.93298 30 10.6667V19.3333C30 23.067 30 24.9339 29.2734 26.3599C28.6342 27.6144 27.6144 28.6342 26.3599 29.2734C24.9339 30 23.067 30 19.3333 30H10.6667C6.93298 30 5.06614 30 3.64006 29.2734C2.38565 28.6342 1.36578 27.6144 0.726621 26.3599C0 24.9339 0 23.067 0 19.3333V10.6667Z" fill="white"/>
<path d="M21.4835 6.98877L15.0687 11.995L8.50732 6.98877V6.99012L8.51525 6.99689V14.0069L14.9948 19.1213L21.4835 14.2044V6.98877Z" fill="#EA4335"/>
<path d="M23.1675 5.77092L21.4829 6.98863V14.2043L26.7838 10.1344V7.68272C26.7838 7.68272 26.1404 4.18112 23.1675 5.77092Z" fill="#FBBC05"/>
<path d="M21.4829 14.2046V23.5634H25.5458C25.5458 23.5634 26.7019 23.4444 26.7851 22.1265V10.1348L21.4829 14.2046Z" fill="#34A853"/>
<path d="M8.51555 23.5718V14.0072L8.50732 14.0005L8.51555 23.5718Z" fill="#C5221F"/>
<path d="M8.50736 6.99029L6.83199 5.77934C3.85913 4.18954 3.21436 7.6898 3.21436 7.6898V10.1414L8.50736 14.0003V6.99029Z" fill="#C5221F"/>
<path d="M8.50732 6.99072V14.0007L8.51555 14.0075V6.99749L8.50732 6.99072Z" fill="#C5221F"/>
<path d="M3.21436 10.1431V22.1348C3.29628 23.4541 4.45371 23.5718 4.45371 23.5718H8.51661L8.50736 14.0005L3.21436 10.1431Z" fill="#4285F4"/>
</svg>
