<svg width="74" height="30" viewBox="0 0 74 30" fill="none" xmlns="http://www.w3.org/2000/svg">
<path d="M35.2133 14.1915V22.9428H32.4958V1.34013H39.703C41.4414 1.30568 43.1124 1.97753 44.3783 3.21787C45.6442 4.37208 46.3531 6.0431 46.3193 7.76579C46.3531 9.50572 45.6442 11.1767 44.3783 12.3482C43.1124 13.5713 41.5596 14.1915 39.7198 14.1915H35.2133ZM35.2133 3.99309V11.5385H39.7705C40.7832 11.573 41.7621 11.1595 42.4541 10.4188C43.8888 9.00614 43.9057 6.68049 42.5217 5.2162L42.4541 5.14729C41.7621 4.38931 40.7832 3.97586 39.7705 4.01031L35.2133 3.99309ZM52.5812 7.67966C54.5898 7.67966 56.1763 8.23092 57.3409 9.31622C58.5056 10.4188 59.0794 11.9175 59.0794 13.8297V22.9255H56.4801V20.8755H56.362C55.2311 22.5638 53.7458 23.4079 51.8723 23.4079C50.2857 23.4079 48.9355 22.9255 47.8721 21.9608C46.8257 21.065 46.2349 19.7386 46.2687 18.3432C46.2687 16.81 46.8425 15.6041 47.9734 14.691C49.1043 13.778 50.6233 13.3301 52.5137 13.3301C54.134 13.3301 55.4506 13.6402 56.497 14.2259V13.5885C56.497 12.641 56.0919 11.7452 55.383 11.1423C54.6573 10.4877 53.729 10.1259 52.7669 10.1259C51.2478 10.1259 50.0494 10.7805 49.1549 12.0898L46.7581 10.5566C48.0578 8.64437 49.9988 7.67966 52.5812 7.67966ZM49.0705 18.4121C49.0705 19.1356 49.4081 19.8075 49.9651 20.2209C50.5727 20.7033 51.3153 20.9617 52.0749 20.9444C53.2226 20.9444 54.3197 20.4793 55.1299 19.6524C56.0244 18.7911 56.4801 17.7747 56.4801 16.6032C55.6362 15.9142 54.4547 15.5696 52.9357 15.5696C51.8386 15.5696 50.9102 15.8453 50.1676 16.3793C49.4418 16.9306 49.0705 17.6024 49.0705 18.4121ZM74 8.16202L64.9194 29.4546H62.1175L65.4932 22.0125L59.5183 8.17924H62.472L66.776 18.7911H66.8435L71.0463 8.17924L74 8.16202Z" fill="black"/>
<path d="M24.197 12.4594C24.197 11.63 24.1294 10.8006 23.9943 9.98804H12.5273V14.6769H19.0968C18.8265 16.1835 17.9484 17.5377 16.6649 18.384V21.431H20.5829C22.8797 19.3151 24.197 16.1835 24.197 12.4594Z" fill="#4285F4"/>
<path d="M12.5274 24.3764C15.8037 24.3764 18.5733 23.2931 20.583 21.4311L16.665 18.3841C15.5672 19.1289 14.1655 19.5521 12.5274 19.5521C9.35242 19.5521 6.66721 17.4023 5.70459 14.5247H1.66833V17.6732C3.72868 21.7696 7.93382 24.3764 12.5274 24.3764Z" fill="#34A853"/>
<path d="M5.70449 14.5245C5.19785 13.018 5.19785 11.376 5.70449 9.85252V6.72095H1.66824C0.810605 8.41533 0.363647 10.2885 0.363647 12.1885C0.363647 14.0885 0.810605 15.9617 1.66824 17.6561L5.70449 14.5245Z" fill="#FBBC04"/>
<path d="M12.5274 4.82506C14.2669 4.7912 15.9388 5.45137 17.1885 6.65322L20.6506 3.18309C18.4551 1.10102 15.5504 -0.0331182 12.5274 0.000736647C7.93382 0.000736647 3.72868 2.60756 1.66833 6.72093L5.70459 9.86943C6.66721 6.97484 9.35242 4.82506 12.5274 4.82506Z" fill="#EA4335"/>
</svg>
