<svg width="47" height="30" viewBox="0 0 47 30" fill="none" xmlns="http://www.w3.org/2000/svg">
<path d="M0.200012 0H47V30H0.200012V0Z" fill="#16366F"/>
<path d="M27.1387 15.0005C27.1387 20.9491 22.3165 25.7705 16.3681 25.7705C10.4197 25.7705 5.59805 20.9488 5.59805 15.0005C5.59805 9.05249 10.4198 4.23047 16.3681 4.23047C22.3163 4.23047 27.1387 9.05267 27.1387 15.0005Z" fill="#D9222A"/>
<path d="M30.829 4.23022C28.0462 4.23022 25.5105 5.28598 23.599 7.01818C23.2096 7.37152 22.8462 7.7524 22.5115 8.15794H24.6875C24.9855 8.52016 25.2597 8.90122 25.5086 9.29872H21.6905C21.4609 9.66598 21.2537 10.0469 21.07 10.4392H26.1288C26.3023 10.8103 26.4546 11.191 26.5848 11.5794H20.614C20.4886 11.9535 20.3841 12.3343 20.301 12.72H26.8974C27.0588 13.4694 27.1401 14.2338 27.1399 15.0005C27.1399 16.1965 26.9446 17.3472 26.5846 18.4217H20.6139C20.7438 18.8104 20.8959 19.1912 21.0696 19.5623H26.1286C25.9448 19.9547 25.7374 20.3356 25.5078 20.703H21.6903C21.9396 21.1008 22.2141 21.4818 22.5114 21.8428H24.6869C24.3527 22.2491 23.9891 22.6304 23.5991 22.9835C25.5107 24.7155 28.0462 25.7708 30.8291 25.7708C36.7774 25.7707 41.5997 20.949 41.5997 15.0008C41.5997 9.05297 36.7775 4.23076 30.8291 4.23076" fill="#EE9F2D"/>
<path d="M40.1661 21.0029C40.1661 20.8109 40.3217 20.6549 40.5139 20.6549C40.7061 20.6549 40.8617 20.8109 40.8617 21.0029C40.8617 21.1949 40.7061 21.3509 40.5139 21.3509C40.3218 21.3508 40.1661 21.195 40.1661 21.0029ZM40.5139 21.2674C40.66 21.2673 40.7783 21.1489 40.7784 21.0029C40.7784 20.8569 40.6601 20.7387 40.5141 20.7387H40.5139C40.3682 20.7384 40.2499 20.8565 40.2497 21.0022V21.003C40.2495 21.1489 40.3677 21.2673 40.5136 21.2675C40.5137 21.2674 40.5138 21.2674 40.5139 21.2674ZM40.4669 21.1558H40.3956V20.8502H40.5246C40.5516 20.8502 40.5791 20.8502 40.6029 20.8654C40.6277 20.8821 40.6416 20.9116 40.6416 20.9421C40.6416 20.9763 40.6214 21.0083 40.5887 21.0208L40.6449 21.1558H40.566L40.5192 21.0348H40.467L40.4669 21.1558ZM40.4669 20.9824H40.5064C40.5212 20.9824 40.5366 20.9836 40.5499 20.9764C40.5617 20.9689 40.5677 20.9549 40.5677 20.9414C40.5677 20.9297 40.5605 20.9162 40.5504 20.9104C40.538 20.9025 40.5182 20.9043 40.5049 20.9043H40.4669V20.9824ZM13.8569 16.1786C13.7342 16.1644 13.6802 16.1606 13.5959 16.1606C12.9332 16.1606 12.5977 16.3879 12.5977 16.8366C12.5977 17.1133 12.7615 17.2894 13.0169 17.2894C13.4932 17.2894 13.8365 16.8358 13.8569 16.1786ZM14.7072 18.1584H13.7384L13.7607 17.6978C13.4652 18.0618 13.0709 18.2348 12.5352 18.2348C11.9015 18.2348 11.4669 17.7398 11.4669 17.0211C11.4669 15.9396 12.2227 15.3087 13.52 15.3087C13.6524 15.3087 13.8224 15.3207 13.9964 15.3428C14.0327 15.1964 14.0422 15.1337 14.0422 15.0548C14.0422 14.7603 13.8384 14.6505 13.2922 14.6505C12.7202 14.6441 12.2484 14.7868 12.0547 14.8506C12.0669 14.7768 12.2167 13.8511 12.2167 13.8511C12.7994 13.6803 13.1837 13.6161 13.6162 13.6161C14.6202 13.6161 15.152 14.0668 15.151 14.9188C15.1529 15.1471 15.1152 15.4288 15.0562 15.7991C14.9547 16.4429 14.737 17.8221 14.7072 18.1584ZM10.9777 18.1584H9.80842L10.4782 13.9586L8.9827 18.1584H8.1859L8.0875 13.9826L7.38346 18.1584H6.28894L7.20322 12.6951H8.88442L8.98642 15.7531L10.0119 12.6951H11.882L10.9777 18.1584ZM32.2765 16.1786C32.1543 16.1644 32.1 16.1606 32.016 16.1606C31.3535 16.1606 31.0179 16.3879 31.0179 16.8366C31.0179 17.1133 31.1815 17.2894 31.4369 17.2894C31.9133 17.2894 32.2568 16.8358 32.2765 16.1786ZM33.1275 18.1584H32.1588L32.1807 17.6978C31.8852 18.0618 31.4907 18.2348 30.9555 18.2348C30.3215 18.2348 29.8875 17.7398 29.8875 17.0211C29.8875 15.9396 30.6427 15.3087 31.9402 15.3087C32.0727 15.3087 32.2424 15.3207 32.4162 15.3428C32.4525 15.1964 32.462 15.1337 32.462 15.0548C32.462 14.7603 32.2585 14.6505 31.7123 14.6505C31.1403 14.6441 30.669 14.7868 30.4745 14.8506C30.4868 14.7768 30.637 13.8511 30.637 13.8511C31.2198 13.6803 31.6038 13.6161 32.0357 13.6161C33.0402 13.6161 33.572 14.0668 33.571 14.9188C33.5729 15.1471 33.5352 15.4288 33.4762 15.7991C33.3753 16.4429 33.157 17.8221 33.1275 18.1584ZM19.9041 18.0909C19.584 18.1917 19.3346 18.2348 19.0641 18.2348C18.4663 18.2348 18.1401 17.8913 18.1401 17.2588C18.1316 17.0626 18.2261 16.5461 18.3003 16.0746C18.3678 15.6596 18.8073 13.0428 18.8073 13.0428H19.9695L19.8338 13.7153H20.5358L20.3772 14.7831H19.6727C19.5377 15.6281 19.3455 16.6806 19.3433 16.8201C19.3433 17.0491 19.4655 17.1491 19.7435 17.1491C19.8767 17.1491 19.9799 17.1355 20.0588 17.1071L19.9041 18.0909ZM23.4675 18.0549C23.0683 18.1769 22.683 18.2359 22.2748 18.2349C20.9738 18.2336 20.2956 17.5541 20.2956 16.253C20.2956 14.7342 21.1584 13.6161 22.3296 13.6161C23.2878 13.6161 23.8998 14.2421 23.8998 15.2239C23.8998 15.5496 23.8578 15.8676 23.7566 16.3166H21.4421C21.3638 16.9611 21.7763 17.2296 22.4523 17.2296C22.8684 17.2296 23.2436 17.1438 23.6608 16.9499L23.4675 18.0549ZM22.8143 15.4209C22.8207 15.3283 22.9376 14.6279 22.2735 14.6279C21.9033 14.6279 21.6386 14.9101 21.5307 15.4209H22.8143ZM15.4091 15.1199C15.4091 15.6819 15.6816 16.0694 16.2996 16.3604C16.7731 16.583 16.8464 16.649 16.8464 16.8506C16.8464 17.1276 16.6376 17.2526 16.1748 17.2526C15.8261 17.2526 15.5016 17.1982 15.1274 17.0774C15.1274 17.0774 14.9736 18.0566 14.9666 18.1035C15.2324 18.1614 15.4694 18.2151 16.1834 18.2349C17.4171 18.2349 17.9868 17.7651 17.9868 16.7499C17.9868 16.1394 17.7483 15.7811 17.1626 15.5119C16.6724 15.2869 16.6161 15.2366 16.6161 15.0291C16.6161 14.7889 16.8104 14.6664 17.1884 14.6664C17.4179 14.6664 17.7314 14.6909 18.0284 14.7332L18.1949 13.7027C17.8921 13.6547 17.4331 13.6161 17.1659 13.6161C15.8579 13.6161 15.4051 14.2994 15.4091 15.1199ZM29.1545 13.7329C29.4793 13.7329 29.7821 13.8181 30.1993 14.0281L30.3905 12.8424C30.2193 12.7752 29.6163 12.3804 29.1056 12.3804C28.323 12.3804 27.6616 12.7686 27.1964 13.4094C26.5178 13.1846 26.2388 13.6389 25.8968 14.0914L25.5931 14.1621C25.6161 14.0132 25.6369 13.8651 25.6299 13.7154H24.5561C24.4094 15.0904 24.1494 16.4832 23.9459 17.8599L23.8928 18.1584H25.0626C25.2578 16.8899 25.3649 16.0776 25.4298 15.5279L25.8704 15.2829C25.9361 15.0381 26.1421 14.9554 26.5553 14.9654C26.4998 15.2658 26.472 15.5708 26.4723 15.8764C26.4723 17.3299 27.2566 18.2349 28.5153 18.2349C28.8396 18.2349 29.1179 18.1922 29.5486 18.0755L29.7545 16.8299C29.3669 17.0207 29.0488 17.1104 28.7608 17.1104C28.0811 17.1104 27.6698 16.6087 27.6698 15.7794C27.6698 14.5764 28.2815 13.7329 29.1545 13.7329Z" fill="black"/>
<path d="M11.3116 17.8351H10.1421L10.8123 13.6358L9.31683 17.8351H8.51991L8.42139 13.6598L7.71741 17.8351H6.62283L7.53711 12.3726H9.21831L9.26559 15.7543L10.3998 12.3726H12.2159L11.3116 17.8351Z" fill="white"/>
<path d="M39.051 12.6968L38.7919 14.2753C38.4721 13.8545 38.1287 13.55 37.6752 13.55C37.0851 13.55 36.5481 13.9973 36.1967 14.6555C35.7072 14.554 35.2008 14.3818 35.2008 14.3818L35.2006 14.3858C35.2401 14.0178 35.2558 13.7933 35.2523 13.717H34.1783C34.0321 15.092 33.7721 16.4848 33.5689 17.8615L33.5153 18.1601H34.6848C34.8428 17.1343 34.9638 16.2825 35.0528 15.607C35.4524 15.246 35.6523 14.931 36.0561 14.952C35.8773 15.3844 35.7726 15.8822 35.7726 16.393C35.7726 17.5038 36.3346 18.2365 37.1846 18.2365C37.6131 18.2365 37.9418 18.0888 38.2626 17.7463L38.2079 18.1594H39.3138L40.2044 12.6968H39.051ZM37.5888 17.1333C37.1908 17.1333 36.9899 16.8388 36.9899 16.2575C36.9899 15.3843 37.3661 14.765 37.8966 14.765C38.2983 14.765 38.5158 15.0712 38.5158 15.6355C38.5158 16.5163 38.1336 17.1333 37.5888 17.1333Z" fill="black"/>
<path d="M14.1905 15.8549C14.068 15.8407 14.0137 15.8369 13.9297 15.8369C13.267 15.8369 12.9317 16.0642 12.9317 16.5129C12.9317 16.7892 13.0955 16.9657 13.3505 16.9657C13.8272 16.9657 14.1705 16.5122 14.1905 15.8549ZM15.0412 17.8339H14.0725L14.0945 17.3742C13.7992 17.7374 13.4045 17.9112 12.8692 17.9112C12.2352 17.9112 11.801 17.4162 11.801 16.6974C11.801 15.6155 12.5565 14.9849 13.854 14.9849C13.9865 14.9849 14.1565 14.9969 14.3302 15.0192C14.3665 14.8726 14.376 14.8099 14.376 14.7307C14.376 14.4362 14.1725 14.3269 13.6262 14.3269C13.054 14.3204 12.5825 14.4632 12.3885 14.5262C12.4007 14.4526 12.5505 13.5279 12.5505 13.5279C13.133 13.3564 13.5177 13.2921 13.9497 13.2921C14.954 13.2921 15.486 13.7432 15.485 14.5944C15.4867 14.8236 15.4487 15.1051 15.39 15.4749C15.2887 16.1184 15.0708 17.4984 15.0412 17.8339ZM30.724 12.5184L30.5325 13.7044C30.1155 13.4947 29.8125 13.4092 29.4881 13.4092C28.615 13.4092 28.0031 14.2527 28.0031 15.4556C28.0031 16.2849 28.4145 16.7865 29.0941 16.7865C29.3821 16.7865 29.6998 16.6969 30.0873 16.5058L29.8821 17.7508C29.4511 17.8684 29.1732 17.9112 28.8486 17.9112C27.59 17.9112 26.8056 17.0061 26.8056 15.5526C26.8056 13.5996 27.8891 12.2346 29.4388 12.2346C29.9493 12.2347 30.5526 12.4512 30.724 12.5184ZM32.6106 15.8549C32.4881 15.8407 32.4341 15.8369 32.3498 15.8369C31.6873 15.8369 31.3518 16.0642 31.3518 16.5129C31.3518 16.7892 31.5155 16.9657 31.7708 16.9657C32.247 16.9657 32.5905 16.5122 32.6106 15.8549ZM33.4613 17.8339H32.4923L32.5145 17.3742C32.2191 17.7374 31.8245 17.9112 31.2893 17.9112C30.6555 17.9112 30.2211 17.4162 30.2211 16.6974C30.2211 15.6155 30.9768 14.9849 32.2738 14.9849C32.4066 14.9849 32.5763 14.9969 32.7502 15.0192C32.7863 14.8726 32.796 14.8099 32.796 14.7307C32.796 14.4362 32.5925 14.3269 32.0463 14.3269C31.4743 14.3204 31.0025 14.4632 30.8085 14.5262C30.8208 14.4526 30.9708 13.5279 30.9708 13.5279C31.5533 13.3564 31.9377 13.2921 32.3697 13.2921C33.3742 13.2921 33.906 13.7432 33.9047 14.5944C33.9067 14.8236 33.869 15.1051 33.81 15.4749C33.709 16.1184 33.4905 17.4984 33.4613 17.8339ZM20.2379 17.7666C19.9176 17.8674 19.6681 17.9112 19.3979 17.9112C18.8001 17.9112 18.4739 17.5676 18.4739 16.9352C18.4656 16.7383 18.5601 16.2223 18.6344 15.7509C18.7016 15.3354 19.1412 12.7189 19.1412 12.7189H20.3032L20.1676 13.3917H20.7642L20.6054 14.4589H20.0069C19.8719 15.3044 19.6791 16.3561 19.6771 16.4959C19.6771 16.7257 19.7997 16.8249 20.0774 16.8249C20.2106 16.8249 20.3137 16.8118 20.3926 16.7833L20.2379 17.7666ZM23.8014 17.7312C23.4024 17.8531 23.0166 17.9119 22.6086 17.9112C21.3076 17.9099 20.6294 17.2304 20.6294 15.9292C20.6294 14.4099 21.4922 13.2922 22.6634 13.2922C23.6216 13.2922 24.2336 13.9179 24.2336 14.9002C24.2336 15.2262 24.1916 15.5442 24.0907 15.9929H21.7762C21.6978 16.6374 22.1103 16.9062 22.7864 16.9062C23.2022 16.9062 23.5777 16.8201 23.9946 16.6256L23.8014 17.7312ZM23.1479 15.0964C23.1549 15.0042 23.2714 14.3034 22.6071 14.3034C22.2372 14.3034 21.9724 14.5864 21.8646 15.0964H23.1479ZM15.7427 14.7962C15.7427 15.3581 16.0152 15.7452 16.6332 16.0367C17.1067 16.2592 17.1799 16.3254 17.1799 16.5269C17.1799 16.8039 16.971 16.9289 16.5087 16.9289C16.1597 16.9289 15.8352 16.8744 15.4607 16.7537C15.4607 16.7537 15.3075 17.7329 15.3005 17.7797C15.5657 17.8377 15.8029 17.8907 16.5169 17.9112C17.751 17.9112 18.3205 17.4414 18.3205 16.4264C18.3205 15.8156 18.0822 15.4574 17.4962 15.1882C17.0062 14.9627 16.9495 14.9132 16.9495 14.7054C16.9495 14.4654 17.1442 14.3419 17.5219 14.3419C17.7512 14.3419 18.0647 14.3671 18.3622 14.4094L18.5284 13.3786C18.226 13.3306 17.767 13.2922 17.4997 13.2922C16.1914 13.2922 15.739 13.9749 15.7427 14.7962ZM39.6497 17.8339H38.5435L38.5985 17.4204C38.2777 17.7634 37.949 17.9112 37.5205 17.9112C36.6704 17.9112 36.1087 17.1784 36.1087 16.0677C36.1087 14.5899 36.9799 13.3441 38.0112 13.3441C38.4647 13.3441 38.808 13.5294 39.1275 13.9498L39.387 12.3714H40.5402L39.6497 17.8339ZM37.925 16.8074C38.4695 16.8074 38.852 16.1904 38.852 15.3102C38.852 14.7459 38.6342 14.4397 38.2325 14.4397C37.7022 14.4397 37.3255 15.0587 37.3255 15.9322C37.3255 16.5133 37.527 16.8074 37.925 16.8074ZM34.5144 13.3917C34.3681 14.7667 34.108 16.1595 33.9047 17.5354L33.8512 17.8339H35.0207C35.439 15.1174 35.5402 14.5869 36.196 14.6534C36.3005 14.0974 36.4949 13.6104 36.6399 13.3647C36.1501 13.2627 35.8767 13.5394 35.5186 14.0652C35.5469 13.8379 35.5987 13.6172 35.5884 13.3917H34.5144ZM24.8892 13.3917C24.7425 14.7667 24.4824 16.1595 24.2792 17.5354L24.226 17.8339H25.396C25.8137 15.1174 25.9147 14.5869 26.5701 14.6534C26.6751 14.0974 26.8696 13.6104 27.0141 13.3647C26.5249 13.2627 26.2512 13.5394 25.8934 14.0652C25.9216 13.8379 25.9729 13.6172 25.9632 13.3917H24.8892ZM40.1634 17.4862C40.1634 17.2933 40.3192 17.1382 40.5112 17.1382C40.703 17.138 40.8587 17.2934 40.8589 17.4853V17.4862C40.8588 17.6782 40.7032 17.8338 40.5112 17.8339C40.3192 17.8338 40.1635 17.6782 40.1634 17.4862ZM40.5112 17.7504C40.6571 17.7505 40.7754 17.6322 40.7754 17.4864V17.4862C40.7755 17.3403 40.6573 17.2219 40.5114 17.2218H40.5112C40.3651 17.2218 40.2467 17.3402 40.2466 17.4862C40.2468 17.6322 40.3652 17.7504 40.5112 17.7504ZM40.4641 17.6382H40.3929V17.3332H40.5221C40.5489 17.3332 40.5766 17.3337 40.5999 17.3484C40.6248 17.3654 40.6391 17.3944 40.6391 17.4249C40.6391 17.4594 40.6188 17.4916 40.5858 17.5039L40.6423 17.638H40.5631L40.5163 17.5176H40.4641V17.638V17.6382ZM40.4641 17.4654H40.5034C40.5181 17.4654 40.5342 17.4665 40.5471 17.4594C40.5588 17.4519 40.5648 17.4378 40.5648 17.4242C40.5643 17.4116 40.5579 17.4 40.5476 17.3928C40.5354 17.3857 40.5151 17.3877 40.5018 17.3877H40.4641L40.4641 17.4654Z" fill="white"/>
</svg>
