<svg width="16" height="32" viewBox="0 0 16 32" fill="none" xmlns="http://www.w3.org/2000/svg">
<path d="M13.2711 0.776335C13.783 0.775345 14.2791 0.951973 14.6733 1.27556C14.8951 1.45778 15.0785 1.68157 15.2129 1.9341C15.3473 2.18664 15.4301 2.46297 15.4566 2.74726C15.483 3.03155 15.4526 3.31822 15.3671 3.59085C15.2815 3.86348 15.1425 4.11671 14.9581 4.33604L5.14301 15.9702L14.6075 27.6261C14.7895 27.8481 14.9254 28.1036 15.0074 28.3778C15.0894 28.652 15.1159 28.9396 15.0854 29.224C15.0549 29.5084 14.9679 29.784 14.8295 30.035C14.6911 30.286 14.504 30.5074 14.2789 30.6866C14.0522 30.8842 13.7868 31.0332 13.4992 31.1243C13.2116 31.2155 12.9081 31.2467 12.6078 31.2162C12.3074 31.1856 12.0167 31.0939 11.7538 30.9467C11.491 30.7995 11.2616 30.6001 11.0802 30.361L0.498389 17.3377C0.176153 16.9493 -4.76837e-06 16.4621 -4.76837e-06 15.9594C-4.76837e-06 15.4566 0.176153 14.9694 0.498389 14.5811L11.4527 1.55774C11.6725 1.29506 11.9517 1.08742 12.2676 0.951653C12.5835 0.815887 12.9273 0.755823 13.2711 0.776335Z" fill="#231F20"/>
</svg>
