<svg width="30" height="30" viewBox="0 0 30 30" fill="none" xmlns="http://www.w3.org/2000/svg">
<path d="M25.5 0H4.5C2.01472 0 0 2.01472 0 4.5V25.5C0 27.9853 2.01472 30 4.5 30H25.5C27.9853 30 30 27.9853 30 25.5V4.5C30 2.01472 27.9853 0 25.5 0Z" fill="#37AEE2"/>
<path d="M11.6602 23.6719C11.0156 23.6719 11.0742 23.4375 10.8984 22.8516L9.02344 16.6992L23.3789 8.26172" fill="#C8DAEA"/>
<path d="M11.6602 23.6719C12.0703 23.6719 12.3047 23.4375 12.5977 23.2031L15.2344 20.6836L11.9531 18.6914" fill="#A9C9DD"/>
<path d="M11.953 18.6914L19.8632 24.4921C20.6835 25.0195 21.3866 24.7265 21.621 23.6718L24.8436 8.55464C25.1366 7.26558 24.3163 6.67964 23.4374 7.0898L4.62878 14.3554C3.39831 14.8242 3.39831 15.5859 4.39441 15.8789L9.25769 17.4023L20.3905 10.3125C20.9178 10.0195 21.3866 10.1367 21.035 10.5468" fill="#F6FBFE"/>
</svg>
