<svg width="29" height="34" viewBox="0 0 29 34" fill="none" xmlns="http://www.w3.org/2000/svg">
<path d="M22.1406 33.0701H7.78724C5.70796 33.0701 4.00925 31.4408 3.89809 29.3893L3.8977 29.3795L2.56902 5.61457H27.3583L26.0355 29.3839C25.9224 31.4432 24.225 33.0701 22.1476 33.0701H22.1402H22.1406L22.1406 33.0701ZM4.90007 7.81932L6.09941 29.2604C6.14605 30.1562 6.88353 30.865 7.78666 30.8654H22.1391C23.0407 30.8651 23.7774 30.1587 23.8261 29.2691L23.8264 29.2648L25.0272 7.81925L4.90007 7.81932ZM29 7.81932H0.927246V5.61461H29V7.81932ZM12.1564 3.23388e-05H17.7709C19.9291 0.00255134 21.678 1.75139 21.6805 3.9094V7.81925H8.24673V3.90963C8.24925 1.75142 9.99809 0.00251901 12.1561 0H12.1563L12.1564 3.23388e-05ZM19.4758 5.61461V3.90966C19.475 2.96839 18.7122 2.20555 17.771 2.20471H12.1564C11.2151 2.20552 10.4523 2.96836 10.4514 3.90956V5.61457L19.4758 5.61461ZM16.066 27.7642H13.8613V10.9205H16.066V27.7642ZM21.6805 27.7642H19.4758V10.9205H21.6805V27.7642ZM10.4514 27.7642H8.24673V10.9205H10.4514V27.7642Z" fill="#6D625A"/>
</svg>
