<svg width="50" height="36" viewBox="0 0 50 36" fill="none" xmlns="http://www.w3.org/2000/svg">
<mask id="path-1-inside-1_902_437" fill="white">
<path d="M40.5556 11.1792L41.7898 10.0333C41.4738 9.67701 41.0256 9.47395 40.5556 9.47395V11.1792ZM48.3333 19.9489H50C50 19.5253 49.8458 19.1167 49.5676 18.8029L48.3333 19.9489ZM48.3333 29.3683L48.3336 31.0736C49.254 31.0733 50 30.3101 50 29.3683H48.3333ZM32.7778 11.1792V9.47395C31.8574 9.47395 31.1111 10.2375 31.1111 11.1792H32.7778ZM1.66667 0.379395C0.746186 0.379395 0 1.14286 0 2.08462C0 3.02639 0.746186 3.78985 1.66667 3.78985V0.379395ZM32.7778 2.08462H34.4445C34.4445 1.14286 33.6982 0.379395 32.7778 0.379395V2.08462ZM8.33378 27.6631C7.41329 27.6629 6.66691 28.4261 6.66667 29.3679C6.6664 30.3096 7.4124 31.0733 8.33287 31.0736L8.33378 27.6631ZM9.44444 17.4317C10.3649 17.4317 11.1111 16.6682 11.1111 15.7265C11.1111 14.7847 10.3649 14.0213 9.44444 14.0213V17.4317ZM6.11111 14.0213C5.19063 14.0213 4.44445 14.7847 4.44445 15.7265C4.44445 16.6682 5.19063 17.4317 6.11111 17.4317V14.0213ZM9.44444 24.2526C10.3649 24.2526 11.1111 23.4891 11.1111 22.5474C11.1111 21.6057 10.3649 20.8422 9.44444 20.8422V24.2526ZM8.33333 20.8422C7.41285 20.8422 6.66667 21.6057 6.66667 22.5474C6.66667 23.4891 7.41285 24.2526 8.33333 24.2526V20.8422ZM9.44444 10.6108C10.3649 10.6108 11.1111 9.84731 11.1111 8.90554C11.1111 7.96378 10.3649 7.20031 9.44444 7.20031V10.6108ZM3.88889 7.20031C2.96841 7.20031 2.22223 7.96378 2.22223 8.90554C2.22223 9.84731 2.96841 10.6108 3.88889 10.6108V7.20031ZM39.3213 12.3251L47.0991 21.0948L49.5676 18.8029L41.7898 10.0333L39.3213 12.3251ZM46.6667 19.9489V29.3683H50V19.9489H46.6667ZM48.3331 27.6631L43.6991 27.6638L43.6996 31.0742L48.3336 31.0736L48.3331 27.6631ZM45.2709 28.8011C44.5856 26.8159 42.7356 25.3895 40.5556 25.3895V28.7999C41.2787 28.7999 41.8985 29.2722 42.1278 29.937L45.2709 28.8011ZM40.5556 25.3895C38.3756 25.3895 36.5253 26.8159 35.84 28.8011L38.9831 29.937C39.2127 29.2722 39.8322 28.7999 40.5556 28.7999V25.3895ZM37.4118 27.6638L32.778 27.6631L32.7776 31.0736L37.4113 31.0742L37.4118 27.6638ZM34.4445 29.3683V11.1792H31.1111V29.3683H34.4445ZM32.7778 12.8844H40.5556V9.47395H32.7778V12.8844ZM1.66667 3.78985H32.7778V0.379395H1.66667V3.78985ZM31.1111 2.08462V29.3683H34.4445V2.08462H31.1111ZM32.778 27.6631L17.0327 27.6638L17.0328 31.0742L32.7776 31.0736L32.778 27.6631ZM18.6043 28.8011C17.9189 26.8159 16.0689 25.3895 13.8889 25.3895V28.7999C14.6121 28.7999 15.2317 29.2722 15.4612 29.937L18.6043 28.8011ZM13.8889 25.3895C11.7089 25.3895 9.8588 26.8159 9.17347 28.8011L12.3165 29.937C12.546 29.2722 13.1657 28.7999 13.8889 28.7999V25.3895ZM10.7454 27.6638L8.33378 27.6631L8.33287 31.0736L10.7445 31.0742L10.7454 27.6638ZM40.5556 28.7999C41.476 28.7999 42.2222 29.5634 42.2222 30.5051H45.5556C45.5556 27.6799 43.3169 25.3895 40.5556 25.3895V28.7999ZM42.2222 30.5051C42.2222 31.4469 41.476 32.2104 40.5556 32.2104V35.6208C43.3169 35.6208 45.5556 33.3304 45.5556 30.5051H42.2222ZM40.5556 32.2104C39.6351 32.2104 38.8889 31.4469 38.8889 30.5051H35.5556C35.5556 33.3304 37.794 35.6208 40.5556 35.6208V32.2104ZM38.8889 30.5051C38.8889 29.5634 39.6351 28.7999 40.5556 28.7999V25.3895C37.794 25.3895 35.5556 27.6799 35.5556 30.5051H38.8889ZM13.8889 28.7999C14.8093 28.7999 15.5555 29.5634 15.5555 30.5051H18.8889C18.8889 27.6799 16.6503 25.3895 13.8889 25.3895V28.7999ZM15.5555 30.5051C15.5555 31.4469 14.8093 32.2104 13.8889 32.2104V35.6208C16.6503 35.6208 18.8889 33.3304 18.8889 30.5051H15.5555ZM13.8889 32.2104C12.9684 32.2104 12.2222 31.4469 12.2222 30.5051H8.88889C8.88889 33.3304 11.1275 35.6208 13.8889 35.6208V32.2104ZM12.2222 30.5051C12.2222 29.5634 12.9684 28.7999 13.8889 28.7999V25.3895C11.1275 25.3895 8.88889 27.6799 8.88889 30.5051H12.2222ZM9.44444 14.0213H6.11111V17.4317H9.44444V14.0213ZM9.44444 20.8422H8.33333V24.2526H9.44444V20.8422ZM9.44444 7.20031H3.88889V10.6108H9.44444V7.20031ZM35.84 28.8011C35.6553 29.3363 35.5556 29.9106 35.5556 30.5051H38.8889C38.8889 30.3028 38.9225 30.1125 38.9831 29.937L35.84 28.8011ZM45.5556 30.5051C45.5556 29.9106 45.4558 29.3363 45.2709 28.8011L42.1278 29.937C42.1885 30.1125 42.2222 30.3028 42.2222 30.5051H45.5556ZM9.17347 28.8011C8.98869 29.3363 8.88889 29.9106 8.88889 30.5051H12.2222C12.2222 30.3028 12.2559 30.1125 12.3165 29.937L9.17347 28.8011ZM18.8889 30.5051C18.8889 29.9106 18.7891 29.3363 18.6043 28.8011L15.4612 29.937C15.5218 30.1125 15.5555 30.3028 15.5555 30.5051H18.8889Z"/>
</mask>
<path d="M40.5556 11.1792L41.7898 10.0333C41.4738 9.67701 41.0256 9.47395 40.5556 9.47395V11.1792ZM48.3333 19.9489H50C50 19.5253 49.8458 19.1167 49.5676 18.8029L48.3333 19.9489ZM48.3333 29.3683L48.3336 31.0736C49.254 31.0733 50 30.3101 50 29.3683H48.3333ZM32.7778 11.1792V9.47395C31.8574 9.47395 31.1111 10.2375 31.1111 11.1792H32.7778ZM1.66667 0.379395C0.746186 0.379395 0 1.14286 0 2.08462C0 3.02639 0.746186 3.78985 1.66667 3.78985V0.379395ZM32.7778 2.08462H34.4445C34.4445 1.14286 33.6982 0.379395 32.7778 0.379395V2.08462ZM8.33378 27.6631C7.41329 27.6629 6.66691 28.4261 6.66667 29.3679C6.6664 30.3096 7.4124 31.0733 8.33287 31.0736L8.33378 27.6631ZM9.44444 17.4317C10.3649 17.4317 11.1111 16.6682 11.1111 15.7265C11.1111 14.7847 10.3649 14.0213 9.44444 14.0213V17.4317ZM6.11111 14.0213C5.19063 14.0213 4.44445 14.7847 4.44445 15.7265C4.44445 16.6682 5.19063 17.4317 6.11111 17.4317V14.0213ZM9.44444 24.2526C10.3649 24.2526 11.1111 23.4891 11.1111 22.5474C11.1111 21.6057 10.3649 20.8422 9.44444 20.8422V24.2526ZM8.33333 20.8422C7.41285 20.8422 6.66667 21.6057 6.66667 22.5474C6.66667 23.4891 7.41285 24.2526 8.33333 24.2526V20.8422ZM9.44444 10.6108C10.3649 10.6108 11.1111 9.84731 11.1111 8.90554C11.1111 7.96378 10.3649 7.20031 9.44444 7.20031V10.6108ZM3.88889 7.20031C2.96841 7.20031 2.22223 7.96378 2.22223 8.90554C2.22223 9.84731 2.96841 10.6108 3.88889 10.6108V7.20031ZM39.3213 12.3251L47.0991 21.0948L49.5676 18.8029L41.7898 10.0333L39.3213 12.3251ZM46.6667 19.9489V29.3683H50V19.9489H46.6667ZM48.3331 27.6631L43.6991 27.6638L43.6996 31.0742L48.3336 31.0736L48.3331 27.6631ZM45.2709 28.8011C44.5856 26.8159 42.7356 25.3895 40.5556 25.3895V28.7999C41.2787 28.7999 41.8985 29.2722 42.1278 29.937L45.2709 28.8011ZM40.5556 25.3895C38.3756 25.3895 36.5253 26.8159 35.84 28.8011L38.9831 29.937C39.2127 29.2722 39.8322 28.7999 40.5556 28.7999V25.3895ZM37.4118 27.6638L32.778 27.6631L32.7776 31.0736L37.4113 31.0742L37.4118 27.6638ZM34.4445 29.3683V11.1792H31.1111V29.3683H34.4445ZM32.7778 12.8844H40.5556V9.47395H32.7778V12.8844ZM1.66667 3.78985H32.7778V0.379395H1.66667V3.78985ZM31.1111 2.08462V29.3683H34.4445V2.08462H31.1111ZM32.778 27.6631L17.0327 27.6638L17.0328 31.0742L32.7776 31.0736L32.778 27.6631ZM18.6043 28.8011C17.9189 26.8159 16.0689 25.3895 13.8889 25.3895V28.7999C14.6121 28.7999 15.2317 29.2722 15.4612 29.937L18.6043 28.8011ZM13.8889 25.3895C11.7089 25.3895 9.8588 26.8159 9.17347 28.8011L12.3165 29.937C12.546 29.2722 13.1657 28.7999 13.8889 28.7999V25.3895ZM10.7454 27.6638L8.33378 27.6631L8.33287 31.0736L10.7445 31.0742L10.7454 27.6638ZM40.5556 28.7999C41.476 28.7999 42.2222 29.5634 42.2222 30.5051H45.5556C45.5556 27.6799 43.3169 25.3895 40.5556 25.3895V28.7999ZM42.2222 30.5051C42.2222 31.4469 41.476 32.2104 40.5556 32.2104V35.6208C43.3169 35.6208 45.5556 33.3304 45.5556 30.5051H42.2222ZM40.5556 32.2104C39.6351 32.2104 38.8889 31.4469 38.8889 30.5051H35.5556C35.5556 33.3304 37.794 35.6208 40.5556 35.6208V32.2104ZM38.8889 30.5051C38.8889 29.5634 39.6351 28.7999 40.5556 28.7999V25.3895C37.794 25.3895 35.5556 27.6799 35.5556 30.5051H38.8889ZM13.8889 28.7999C14.8093 28.7999 15.5555 29.5634 15.5555 30.5051H18.8889C18.8889 27.6799 16.6503 25.3895 13.8889 25.3895V28.7999ZM15.5555 30.5051C15.5555 31.4469 14.8093 32.2104 13.8889 32.2104V35.6208C16.6503 35.6208 18.8889 33.3304 18.8889 30.5051H15.5555ZM13.8889 32.2104C12.9684 32.2104 12.2222 31.4469 12.2222 30.5051H8.88889C8.88889 33.3304 11.1275 35.6208 13.8889 35.6208V32.2104ZM12.2222 30.5051C12.2222 29.5634 12.9684 28.7999 13.8889 28.7999V25.3895C11.1275 25.3895 8.88889 27.6799 8.88889 30.5051H12.2222ZM9.44444 14.0213H6.11111V17.4317H9.44444V14.0213ZM9.44444 20.8422H8.33333V24.2526H9.44444V20.8422ZM9.44444 7.20031H3.88889V10.6108H9.44444V7.20031ZM35.84 28.8011C35.6553 29.3363 35.5556 29.9106 35.5556 30.5051H38.8889C38.8889 30.3028 38.9225 30.1125 38.9831 29.937L35.84 28.8011ZM45.5556 30.5051C45.5556 29.9106 45.4558 29.3363 45.2709 28.8011L42.1278 29.937C42.1885 30.1125 42.2222 30.3028 42.2222 30.5051H45.5556ZM9.17347 28.8011C8.98869 29.3363 8.88889 29.9106 8.88889 30.5051H12.2222C12.2222 30.3028 12.2559 30.1125 12.3165 29.937L9.17347 28.8011ZM18.8889 30.5051C18.8889 29.9106 18.7891 29.3363 18.6043 28.8011L15.4612 29.937C15.5218 30.1125 15.5555 30.3028 15.5555 30.5051H18.8889Z" fill="#C55C10"/>
<path d="M43.5294 28.8988L41.9578 29.4667L42.2977 30.4072L43.8693 29.8392L43.5294 28.8988ZM37.2416 29.8392L38.8132 30.4072L39.1531 29.4667L37.5815 28.8988L37.2416 29.8392ZM2.16667 3.78985V0.379395H1.16667V3.78985H2.16667ZM8.83287 31.0737L8.83378 27.6632L7.83378 27.663L7.83287 31.0734L8.83287 31.0737ZM8.94444 14.0213V17.4317H9.94444V14.0213H8.94444ZM6.61111 17.4317V14.0213H5.61111V17.4317H6.61111ZM8.94444 20.8422V24.2526H9.94444V20.8422H8.94444ZM8.83333 24.2526V20.8422H7.83333V24.2526H8.83333ZM8.94444 7.20031V10.6108H9.94444V7.20031H8.94444ZM4.38889 10.6108V7.20031H3.38889V10.6108H4.38889ZM40.0556 25.3895V28.7999H41.0556V25.3895H40.0556ZM42.2977 30.4072L45.4408 29.2713L45.101 28.3308L41.9578 29.4667L42.2977 30.4072ZM35.6701 29.2713L38.8132 30.4072L39.1531 29.4667L36.01 28.3308L35.6701 29.2713ZM32.278 27.663L32.2776 31.0735L33.2776 31.0736L33.278 27.6632L32.278 27.663ZM31.1111 29.8683H34.4445V28.8683H31.1111V29.8683ZM13.3889 25.3895V28.7999H14.3889V25.3895H13.3889ZM15.6312 30.4072L18.7742 29.2713L18.4343 28.3308L15.2913 29.4667L15.6312 30.4072ZM9.00352 29.2713L12.1466 30.4072L12.4865 29.4667L9.34341 28.3308L9.00352 29.2713ZM42.2222 31.0051H45.5556V30.0051H42.2222V31.0051ZM40.0556 32.2104V35.6208H41.0556V32.2104H40.0556ZM38.8889 30.0051H35.5556V31.0051H38.8889V30.0051ZM15.5555 31.0051H18.8889V30.0051H15.5555V31.0051ZM13.3889 32.2104V35.6208H14.3889V32.2104H13.3889ZM12.2222 30.0051H8.88889V31.0051H12.2222V30.0051ZM40.5556 11.1792H39.5556V13.4722L41.236 11.912L40.5556 11.1792ZM41.7898 10.0333L42.5379 9.36976L42.5379 9.36974L41.7898 10.0333ZM48.3333 19.9489L47.6529 19.216L45.7866 20.9489H48.3333V19.9489ZM49.5676 18.8029L50.3158 18.1395L50.3157 18.1394L49.5676 18.8029ZM48.3333 29.3683V28.3683H47.3332L47.3333 29.3685L48.3333 29.3683ZM48.3336 31.0736L48.3337 32.0736H48.3338L48.3336 31.0736ZM42.1278 29.937L41.1825 30.2631L41.1826 30.2636L42.1278 29.937ZM38.9831 29.937L39.9283 30.2636L39.9284 30.2633L38.9831 29.937ZM32.7778 11.1792V12.1792H33.7778V11.1792H32.7778ZM32.7778 2.08462H31.7778V3.08462H32.7778V2.08462ZM8.33378 27.6631L8.33406 26.6631H8.33402L8.33378 27.6631ZM6.66667 29.3679L7.66667 29.3682V29.3681L6.66667 29.3679ZM8.33287 31.0736L8.33315 30.0736H8.33311L8.33287 31.0736ZM39.3213 12.3251L38.6409 11.5923L37.9246 12.2574L38.5732 12.9886L39.3213 12.3251ZM47.0991 21.0948L46.351 21.7583L47.0298 22.5237L47.7795 21.8276L47.0991 21.0948ZM46.6667 19.9489V18.9489H45.6667V19.9489H46.6667ZM46.6667 29.3683H45.6667V30.3683H46.6667V29.3683ZM48.3331 27.6631L49.3331 27.663L49.333 26.6629L48.333 26.6631L48.3331 27.6631ZM43.6991 27.6638L43.699 26.6638L42.699 26.6639L42.6991 27.6639L43.6991 27.6638ZM43.6996 31.0742L42.6996 31.0744L42.6997 32.0744L43.6997 32.0742L43.6996 31.0742ZM45.2709 28.8011L44.3256 29.1274L44.3257 29.1276L45.2709 28.8011ZM35.84 28.8011L34.8948 28.4747L34.8947 28.4749L35.84 28.8011ZM37.4118 27.6638L38.4118 27.6639L38.4119 26.6639L37.4119 26.6638L37.4118 27.6638ZM32.778 27.6631L32.7782 26.6631H32.778L32.778 27.6631ZM32.7776 31.0736L32.7777 30.0736H32.7775L32.7776 31.0736ZM37.4113 31.0742L37.4112 32.0742L38.4112 32.0744L38.4113 31.0744L37.4113 31.0742ZM34.4445 11.1792H35.4445V10.1792H34.4445V11.1792ZM32.7778 12.8844H31.7778V13.8844H32.7778V12.8844ZM40.5556 12.8844V13.8844H41.5556V12.8844H40.5556ZM32.7778 3.78985V4.78985H33.7778V3.78985H32.7778ZM31.1111 2.08462V1.08462H30.1111V2.08462H31.1111ZM17.0327 27.6638L17.0327 26.6638L16.0327 26.6638L16.0327 27.6638L17.0327 27.6638ZM17.0328 31.0742L16.0328 31.0743L16.0329 32.0743L17.0329 32.0742L17.0328 31.0742ZM18.6043 28.8011L17.659 29.1274V29.1274L18.6043 28.8011ZM15.4612 29.937L14.516 30.2633L14.516 30.2633L15.4612 29.937ZM9.17347 28.8011L10.1187 29.1274L10.1187 29.1274L9.17347 28.8011ZM12.3165 29.937L13.2618 30.2633L13.2618 30.2633L12.3165 29.937ZM10.7454 27.6638L11.7454 27.664L11.7457 26.6641L10.7457 26.6638L10.7454 27.6638ZM10.7445 31.0742L10.7442 32.0742L11.7443 32.0745L11.7445 31.0745L10.7445 31.0742ZM41.236 11.912L42.4702 10.7661L41.1094 9.30045L39.8752 10.4464L41.236 11.912ZM42.5379 9.36974C42.0349 8.80261 41.3157 8.47395 40.5556 8.47395V10.474C40.7354 10.474 40.9127 10.5514 41.0417 10.6968L42.5379 9.36974ZM39.5556 9.47395V11.1792H41.5556V9.47395H39.5556ZM48.3333 20.9489H50V18.9489H48.3333V20.9489ZM51 19.9489C51 19.2834 50.7579 18.6381 50.3158 18.1395L48.8193 19.4664C48.9336 19.5953 49 19.7671 49 19.9489H51ZM48.8872 18.0701L47.6529 19.216L49.0137 20.6817L50.248 19.5358L48.8872 18.0701ZM47.3333 29.3685L47.3336 31.0737L49.3336 31.0734L49.3333 29.3682L47.3333 29.3685ZM48.3338 32.0736C49.8277 32.0732 51 30.8407 51 29.3683H49C49 29.7794 48.6803 30.0735 48.3333 30.0736L48.3338 32.0736ZM50 28.3683H48.3333V30.3683H50V28.3683ZM33.7778 11.1792V9.47395H31.7778V11.1792H33.7778ZM32.7778 8.47395C31.2836 8.47395 30.1111 9.70689 30.1111 11.1792H32.1111C32.1111 10.768 32.4311 10.474 32.7778 10.474V8.47395ZM31.1111 12.1792H32.7778V10.1792H31.1111V12.1792ZM1.66667 -0.620605C0.172458 -0.620605 -1 0.612265 -1 2.08462H1C1 1.67345 1.31991 1.37939 1.66667 1.37939V-0.620605ZM-1 2.08462C-1 3.55698 0.172458 4.78985 1.66667 4.78985V2.78985C1.31991 2.78985 1 2.49579 1 2.08462H-1ZM32.7778 3.08462H34.4445V1.08462H32.7778V3.08462ZM35.4445 2.08462C35.4445 0.612256 34.272 -0.620605 32.7778 -0.620605V1.37939C33.1245 1.37939 33.4445 1.67346 33.4445 2.08462H35.4445ZM31.7778 0.379395V2.08462H33.7778V0.379395H31.7778ZM8.33402 26.6631C6.83983 26.6627 5.66705 27.8953 5.66667 29.3676L7.66667 29.3681C7.66678 28.957 7.98675 28.663 8.33353 28.6631L8.33402 26.6631ZM5.66667 29.3676C5.66625 30.8399 6.83839 32.0732 8.33262 32.0736L8.33311 30.0736C7.98642 30.0735 7.66655 29.7793 7.66667 29.3682L5.66667 29.3676ZM9.44444 18.4317C10.9386 18.4317 12.1111 17.1988 12.1111 15.7265H10.1111C10.1111 16.1376 9.79117 16.4317 9.44444 16.4317V18.4317ZM12.1111 15.7265C12.1111 14.2542 10.9386 13.0213 9.44444 13.0213V15.0213C9.79117 15.0213 10.1111 15.3153 10.1111 15.7265H12.1111ZM6.11111 13.0213C4.61688 13.0213 3.44445 14.2542 3.44445 15.7265H5.44445C5.44445 15.3153 5.76437 15.0213 6.11111 15.0213V13.0213ZM3.44445 15.7265C3.44445 17.1988 4.61688 18.4317 6.11111 18.4317V16.4317C5.76437 16.4317 5.44445 16.1376 5.44445 15.7265H3.44445ZM9.44444 25.2526C10.9386 25.2526 12.1111 24.0197 12.1111 22.5474H10.1111C10.1111 22.9586 9.79117 23.2526 9.44444 23.2526V25.2526ZM12.1111 22.5474C12.1111 21.0751 10.9386 19.8422 9.44444 19.8422V21.8422C9.79117 21.8422 10.1111 22.1362 10.1111 22.5474H12.1111ZM8.33333 19.8422C6.8391 19.8422 5.66667 21.0751 5.66667 22.5474H7.66667C7.66667 22.1362 7.98659 21.8422 8.33333 21.8422V19.8422ZM5.66667 22.5474C5.66667 24.0197 6.8391 25.2526 8.33333 25.2526V23.2526C7.98659 23.2526 7.66667 22.9586 7.66667 22.5474H5.66667ZM9.44444 11.6108C10.9387 11.6108 12.1111 10.3779 12.1111 8.90554H10.1111C10.1111 9.31673 9.79116 9.6108 9.44444 9.6108V11.6108ZM12.1111 8.90554C12.1111 7.43318 10.9386 6.20031 9.44444 6.20031V8.20031C9.79118 8.20031 10.1111 8.49438 10.1111 8.90554H12.1111ZM3.88889 6.20031C2.39467 6.20031 1.22223 7.43319 1.22223 8.90554H3.22223C3.22223 8.49437 3.54214 8.20031 3.88889 8.20031V6.20031ZM1.22223 8.90554C1.22223 10.3779 2.39465 11.6108 3.88889 11.6108V9.6108C3.54216 9.6108 3.22223 9.31674 3.22223 8.90554H1.22223ZM38.5732 12.9886L46.351 21.7583L47.8473 20.4312L40.0695 11.6616L38.5732 12.9886ZM47.7795 21.8276L50.248 19.5358L48.8872 18.0701L46.4187 20.3619L47.7795 21.8276ZM50.3157 18.1394L42.5379 9.36976L41.0416 10.6968L48.8194 19.4665L50.3157 18.1394ZM41.1094 9.30046L38.6409 11.5923L40.0018 13.058L42.4702 10.7661L41.1094 9.30046ZM45.6667 19.9489V29.3683H47.6667V19.9489H45.6667ZM46.6667 30.3683H50V28.3683H46.6667V30.3683ZM51 29.3683V19.9489H49V29.3683H51ZM50 18.9489H46.6667V20.9489H50V18.9489ZM48.333 26.6631L43.699 26.6638L43.6993 28.6638L48.3333 28.6631L48.333 26.6631ZM42.6991 27.6639L42.6996 31.0744L44.6996 31.0741L44.6991 27.6636L42.6991 27.6639ZM43.6997 32.0742L48.3337 32.0736L48.3334 30.0736L43.6994 30.0742L43.6997 32.0742ZM49.3336 31.0734L49.3331 27.663L47.3331 27.6632L47.3336 31.0737L49.3336 31.0734ZM46.2161 28.4747C45.4002 26.1113 43.1878 24.3895 40.5556 24.3895V26.3895C42.2833 26.3895 43.7709 27.5206 44.3256 29.1274L46.2161 28.4747ZM40.5556 29.7999C40.8294 29.7999 41.0847 29.9797 41.1825 30.2631L43.0731 29.6109C42.7122 28.5646 41.7279 27.7999 40.5556 27.7999V29.7999ZM40.5556 24.3895C37.9234 24.3895 35.7107 26.1113 34.8948 28.4747L36.7853 29.1274C37.34 27.5206 38.8277 26.3895 40.5556 26.3895V24.3895ZM39.9284 30.2633C40.0263 29.9796 40.2816 29.7999 40.5556 29.7999V27.7999C39.3828 27.7999 38.399 28.5647 38.0379 29.6106L39.9284 30.2633ZM37.4119 26.6638L32.7782 26.6631L32.7779 28.6631L37.4116 28.6638L37.4119 26.6638ZM32.7774 32.0736L37.4112 32.0742L37.4115 30.0742L32.7777 30.0736L32.7774 32.0736ZM38.4113 31.0744L38.4118 27.6639L36.4118 27.6636L36.4113 31.0741L38.4113 31.0744ZM35.4445 29.3683V11.1792H33.4445V29.3683H35.4445ZM34.4445 10.1792H31.1111V12.1792H34.4445V10.1792ZM30.1111 11.1792V29.3683H32.1111V11.1792H30.1111ZM32.7778 13.8844H40.5556V11.8844H32.7778V13.8844ZM41.5556 12.8844V9.47395H39.5556V12.8844H41.5556ZM40.5556 8.47395H32.7778V10.474H40.5556V8.47395ZM31.7778 9.47395V12.8844H33.7778V9.47395H31.7778ZM1.66667 4.78985H32.7778V2.78985H1.66667V4.78985ZM33.7778 3.78985V0.379395H31.7778V3.78985H33.7778ZM32.7778 -0.620605H1.66667V1.37939H32.7778V-0.620605ZM30.1111 2.08462V29.3683H32.1111V2.08462H30.1111ZM35.4445 29.3683V2.08462H33.4445V29.3683H35.4445ZM34.4445 1.08462H31.1111V3.08462H34.4445V1.08462ZM32.778 26.6631L17.0327 26.6638L17.0327 28.6638L32.7781 28.6631L32.778 26.6631ZM16.0327 27.6638L16.0328 31.0743L18.0328 31.0742L18.0327 27.6637L16.0327 27.6638ZM17.0329 32.0742L32.7776 32.0736L32.7775 30.0736L17.0328 30.0742L17.0329 32.0742ZM19.5495 28.4747C18.7336 26.1113 16.5211 24.3895 13.8889 24.3895V26.3895C15.6167 26.3895 17.1043 27.5206 17.659 29.1274L19.5495 28.4747ZM13.8889 29.7999C14.1627 29.7999 14.4181 29.9796 14.516 30.2633L16.4065 29.6107C16.0454 28.5647 15.0614 27.7999 13.8889 27.7999V29.7999ZM13.8889 24.3895C11.2567 24.3895 9.04415 26.1113 8.22821 28.4747L10.1187 29.1274C10.6734 27.5206 12.1611 26.3895 13.8889 26.3895V24.3895ZM13.2618 30.2633C13.3597 29.9796 13.615 29.7999 13.8889 29.7999V27.7999C12.7164 27.7999 11.7323 28.5647 11.3712 29.6107L13.2618 30.2633ZM10.7457 26.6638L8.33406 26.6631L8.33349 28.6631L10.7452 28.6638L10.7457 26.6638ZM8.33258 32.0736L10.7442 32.0742L10.7448 30.0742L8.33315 30.0736L8.33258 32.0736ZM11.7445 31.0745L11.7454 27.664L9.74544 27.6635L9.74453 31.074L11.7445 31.0745ZM40.5556 29.7999C40.9023 29.7999 41.2222 30.094 41.2222 30.5051H43.2222C43.2222 29.0328 42.0497 27.7999 40.5556 27.7999V29.7999ZM46.5556 30.5051C46.5556 27.1493 43.8906 24.3895 40.5556 24.3895V26.3895C42.7432 26.3895 44.5556 28.2105 44.5556 30.5051H46.5556ZM41.2222 30.5051C41.2222 30.9163 40.9023 31.2104 40.5556 31.2104V33.2104C42.0497 33.2104 43.2222 31.9775 43.2222 30.5051H41.2222ZM40.5556 36.6208C43.8906 36.6208 46.5556 33.861 46.5556 30.5051H44.5556C44.5556 32.7998 42.7432 34.6208 40.5556 34.6208V36.6208ZM40.5556 31.2104C40.2088 31.2104 39.8889 30.9163 39.8889 30.5051H37.8889C37.8889 31.9775 39.0614 33.2104 40.5556 33.2104V31.2104ZM34.5556 30.5051C34.5556 33.8609 37.2203 36.6208 40.5556 36.6208V34.6208C38.3678 34.6208 36.5556 32.7998 36.5556 30.5051H34.5556ZM39.8889 30.5051C39.8889 30.094 40.2088 29.7999 40.5556 29.7999V27.7999C39.0614 27.7999 37.8889 29.0328 37.8889 30.5051H39.8889ZM40.5556 24.3895C37.2203 24.3895 34.5556 27.1493 34.5556 30.5051H36.5556C36.5556 28.2105 38.3678 26.3895 40.5556 26.3895V24.3895ZM13.8889 29.7999C14.2356 29.7999 14.5555 30.094 14.5555 30.5051H16.5555C16.5555 29.0328 15.3831 27.7999 13.8889 27.7999V29.7999ZM19.8889 30.5051C19.8889 27.1493 17.224 24.3895 13.8889 24.3895V26.3895C16.0766 26.3895 17.8889 28.2105 17.8889 30.5051H19.8889ZM14.5555 30.5051C14.5555 30.9163 14.2356 31.2104 13.8889 31.2104V33.2104C15.3831 33.2104 16.5555 31.9775 16.5555 30.5051H14.5555ZM13.8889 36.6208C17.224 36.6208 19.8889 33.861 19.8889 30.5051H17.8889C17.8889 32.7998 16.0766 34.6208 13.8889 34.6208V36.6208ZM13.8889 31.2104C13.5421 31.2104 13.2222 30.9163 13.2222 30.5051H11.2222C11.2222 31.9775 12.3947 33.2104 13.8889 33.2104V31.2104ZM7.88889 30.5051C7.88889 33.861 10.5537 36.6208 13.8889 36.6208V34.6208C11.7012 34.6208 9.88889 32.7998 9.88889 30.5051H7.88889ZM13.2222 30.5051C13.2222 30.094 13.5421 29.7999 13.8889 29.7999V27.7999C12.3947 27.7999 11.2222 29.0328 11.2222 30.5051H13.2222ZM13.8889 24.3895C10.5537 24.3895 7.88889 27.1493 7.88889 30.5051H9.88889C9.88889 28.2105 11.7012 26.3895 13.8889 26.3895V24.3895ZM9.44444 13.0213H6.11111V15.0213H9.44444V13.0213ZM6.11111 18.4317H9.44444V16.4317H6.11111V18.4317ZM9.44444 19.8422H8.33333V21.8422H9.44444V19.8422ZM8.33333 25.2526H9.44444V23.2526H8.33333V25.2526ZM9.44444 6.20031H3.88889V8.20031H9.44444V6.20031ZM3.88889 11.6108H9.44444V9.6108H3.88889V11.6108ZM34.8947 28.4749C34.6742 29.1138 34.5556 29.7983 34.5556 30.5051H36.5556C36.5556 30.0229 36.6364 29.5587 36.7853 29.1272L34.8947 28.4749ZM39.8889 30.5051C39.8889 30.4147 39.9037 30.3347 39.9283 30.2636L38.038 29.6103C37.9412 29.8902 37.8889 30.1909 37.8889 30.5051H39.8889ZM46.5556 30.5051C46.5556 29.7983 46.4369 29.1137 46.2161 28.4745L44.3257 29.1276C44.4747 29.5588 44.5556 30.0229 44.5556 30.5051H46.5556ZM41.1826 30.2636C41.2075 30.3355 41.2222 30.4154 41.2222 30.5051H43.2222C43.2222 30.1902 43.1694 29.8895 43.0729 29.6103L41.1826 30.2636ZM8.22821 28.4747C8.0076 29.1137 7.88889 29.7983 7.88889 30.5051H9.88889C9.88889 30.0229 9.96978 29.5588 10.1187 29.1274L8.22821 28.4747ZM13.2222 30.5051C13.2222 30.4151 13.237 30.335 13.2618 30.2633L11.3713 29.6106C11.2748 29.8899 11.2222 30.1905 11.2222 30.5051H13.2222ZM19.8889 30.5051C19.8889 29.7983 19.7701 29.1137 19.5495 28.4747L17.659 29.1274C17.808 29.5588 17.8889 30.0229 17.8889 30.5051H19.8889ZM14.516 30.2633C14.5408 30.3351 14.5555 30.4152 14.5555 30.5051H16.5555C16.5555 30.1904 16.5029 29.8899 16.4065 29.6106L14.516 30.2633Z" fill="#C55C10" mask="url(#path-1-inside-1_902_437)"/>
</svg>
