<svg width="56" height="56" viewBox="0 0 56 56" fill="none" xmlns="http://www.w3.org/2000/svg">
<path d="M25.5526 3.05456C27.1759 2.81524 28.9319 3.36596 30.2198 4.65387L51.3463 25.8169C53.4608 27.9314 53.5655 31.2866 51.5568 33.2954L33.2954 51.5568C31.2866 53.5655 27.9314 53.4608 25.8169 51.3463L4.65387 30.2198C3.36596 28.9319 2.81524 27.1759 3.05456 25.5526L5.79619 6.64236C5.85973 6.20404 6.20404 5.85973 6.64236 5.79619L25.5526 3.05456ZM16.1391 25.972C18.8432 28.676 23.2679 28.676 25.972 25.972C28.676 23.2679 28.676 18.8432 25.972 16.1391C23.2679 13.4351 18.8432 13.4351 16.1391 16.1391C13.4351 18.8432 13.4351 23.2679 16.1391 25.972Z" stroke="#C55C10" stroke-width="4.27" stroke-linecap="round" stroke-linejoin="round"/>
</svg>
