<svg width="50" height="52" viewBox="0 0 50 52" fill="none" xmlns="http://www.w3.org/2000/svg">
<path d="M25 2.923L25.86 1.20295L25 0.772949L24.14 1.20295L25 2.923ZM48.0769 14.4615H50V13.273L48.9369 12.7414L48.0769 14.4615ZM48.0769 37.5384L48.9369 39.2584L50 38.7269V37.5384H48.0769ZM25 49.0769L24.14 50.7969L25 51.2269L25.86 50.7969L25 49.0769ZM1.92308 37.5384H0V38.7269L1.06305 39.2584L1.92308 37.5384ZM1.92308 14.4615L1.06305 12.7414L0 13.273V14.4615H1.92308ZM35.8974 28.5641C35.8974 29.6261 36.7585 30.4871 37.8205 30.4871C38.8826 30.4871 39.7436 29.6261 39.7436 28.5641H35.8974ZM37.8205 19.5897H39.7436V18.4012L38.6805 17.8696L37.8205 19.5897ZM15.6036 6.33115C14.6536 5.85618 13.4985 6.24123 13.0235 7.19118C12.5486 8.14116 12.9336 9.29628 13.8836 9.77126L15.6036 6.33115ZM23.0769 47.7948C23.0769 48.8569 23.938 49.7179 25 49.7179C26.0621 49.7179 26.9231 48.8569 26.9231 47.7948H23.0769ZM24.14 4.64305L47.2169 16.1815L48.9369 12.7414L25.86 1.20295L24.14 4.64305ZM46.1538 14.4615V37.5384H50V14.4615H46.1538ZM47.2169 35.8184L24.14 47.3569L25.86 50.7969L48.9369 39.2584L47.2169 35.8184ZM25.86 47.3569L2.7831 35.8184L1.06305 39.2584L24.14 50.7969L25.86 47.3569ZM3.84615 37.5384V14.4615H0V37.5384H3.84615ZM2.7831 16.1815L25.86 4.64305L24.14 1.20295L1.06305 12.7414L2.7831 16.1815ZM47.2169 12.7414L24.14 24.28L25.86 27.72L48.9369 16.1815L47.2169 12.7414ZM25.86 24.28L2.7831 12.7414L1.06305 16.1815L24.14 27.72L25.86 24.28ZM39.7436 28.5641V19.5897H35.8974V28.5641H39.7436ZM38.6805 17.8696L15.6036 6.33115L13.8836 9.77126L36.9605 21.3097L38.6805 17.8696ZM26.9231 47.7948V26H23.0769V47.7948H26.9231Z" fill="#C55C10"/>
</svg>
