<svg width="30" height="30" viewBox="0 0 30 30" fill="none" xmlns="http://www.w3.org/2000/svg">
<path d="M23.5714 0H6.42857C2.87817 0 0 2.87817 0 6.42857V23.5714C0 27.1218 2.87817 30 6.42857 30H23.5714C27.1218 30 30 27.1218 30 23.5714V6.42857C30 2.87817 27.1218 0 23.5714 0Z" fill="url(#paint0_radial_704_579)"/>
<path d="M23.5714 0H6.42857C2.87817 0 0 2.87817 0 6.42857V23.5714C0 27.1218 2.87817 30 6.42857 30H23.5714C27.1218 30 30 27.1218 30 23.5714V6.42857C30 2.87817 27.1218 0 23.5714 0Z" fill="url(#paint1_radial_704_579)"/>
<path d="M23.5714 0H6.42857C2.87817 0 0 2.87817 0 6.42857V23.5714C0 27.1218 2.87817 30 6.42857 30H23.5714C27.1218 30 30 27.1218 30 23.5714V6.42857C30 2.87817 27.1218 0 23.5714 0Z" fill="url(#paint2_radial_704_579)"/>
<path d="M22.4999 9.10714C22.4999 9.99471 21.7804 10.7143 20.8928 10.7143C20.0052 10.7143 19.2856 9.99471 19.2856 9.10714C19.2856 8.21954 20.0052 7.5 20.8928 7.5C21.7804 7.5 22.4999 8.21954 22.4999 9.10714Z" fill="white"/>
<path fill-rule="evenodd" clip-rule="evenodd" d="M14.9997 20.3569C17.9584 20.3569 20.3569 17.9584 20.3569 14.9997C20.3569 12.0411 17.9584 9.64258 14.9997 9.64258C12.0411 9.64258 9.64258 12.0411 9.64258 14.9997C9.64258 17.9584 12.0411 20.3569 14.9997 20.3569ZM14.9997 18.214C16.775 18.214 18.214 16.775 18.214 14.9997C18.214 13.2245 16.775 11.7854 14.9997 11.7854C13.2245 11.7854 11.7854 13.2245 11.7854 14.9997C11.7854 16.775 13.2245 18.214 14.9997 18.214Z" fill="white"/>
<path fill-rule="evenodd" clip-rule="evenodd" d="M4.28564 14.5714C4.28564 10.971 4.28564 9.17082 4.98632 7.79571C5.60264 6.58609 6.58609 5.60264 7.79571 4.98632C9.17082 4.28564 10.971 4.28564 14.5714 4.28564H15.4285C19.0288 4.28564 20.829 4.28564 22.2041 4.98632C23.4138 5.60264 24.3972 6.58609 25.0135 7.79571C25.7142 9.17082 25.7142 10.971 25.7142 14.5714V15.4285C25.7142 19.0288 25.7142 20.829 25.0135 22.2041C24.3972 23.4138 23.4138 24.3972 22.2041 25.0135C20.829 25.7142 19.0288 25.7142 15.4285 25.7142H14.5714C10.971 25.7142 9.17082 25.7142 7.79571 25.0135C6.58609 24.3972 5.60264 23.4138 4.98632 22.2041C4.28564 20.829 4.28564 19.0288 4.28564 15.4285V14.5714ZM14.5714 6.4285H15.4285C17.2641 6.4285 18.5118 6.43017 19.4763 6.50897C20.4158 6.58572 20.8962 6.72485 21.2314 6.89561C22.0377 7.30651 22.6933 7.96213 23.1042 8.7685C23.275 9.10364 23.4142 9.58407 23.4909 10.5236C23.5696 11.4881 23.5714 12.7358 23.5714 14.5714V15.4285C23.5714 17.2641 23.5696 18.5118 23.4909 19.4763C23.4142 20.4158 23.275 20.8962 23.1042 21.2314C22.6933 22.0377 22.0377 22.6933 21.2314 23.1042C20.8962 23.275 20.4158 23.4142 19.4763 23.4909C18.5118 23.5696 17.2641 23.5714 15.4285 23.5714H14.5714C12.7358 23.5714 11.4881 23.5696 10.5236 23.4909C9.58407 23.4142 9.10364 23.275 8.7685 23.1042C7.96213 22.6933 7.30651 22.0377 6.89561 21.2314C6.72485 20.8962 6.58572 20.4158 6.50897 19.4763C6.43017 18.5118 6.4285 17.2641 6.4285 15.4285V14.5714C6.4285 12.7358 6.43017 11.4881 6.50897 10.5236C6.58572 9.58407 6.72485 9.10364 6.89561 8.7685C7.30651 7.96213 7.96213 7.30651 8.7685 6.89561C9.10364 6.72485 9.58407 6.58572 10.5236 6.50897C11.4881 6.43017 12.7358 6.4285 14.5714 6.4285Z" fill="white"/>
<defs>
<radialGradient id="paint0_radial_704_579" cx="0" cy="0" r="1" gradientUnits="userSpaceOnUse" gradientTransform="translate(10.7143 22.5) rotate(-55.3758) scale(27.3424)">
<stop stop-color="#B13589"/>
<stop offset="0.79309" stop-color="#C62F94"/>
<stop offset="1" stop-color="#8A3AC8"/>
</radialGradient>
<radialGradient id="paint1_radial_704_579" cx="0" cy="0" r="1" gradientUnits="userSpaceOnUse" gradientTransform="translate(9.64286 31.0714) rotate(-65.1363) scale(24.2081)">
<stop stop-color="#E0E8B7"/>
<stop offset="0.444662" stop-color="#FB8A2E"/>
<stop offset="0.71474" stop-color="#E2425C"/>
<stop offset="1" stop-color="#E2425C" stop-opacity="0"/>
</radialGradient>
<radialGradient id="paint2_radial_704_579" cx="0" cy="0" r="1" gradientUnits="userSpaceOnUse" gradientTransform="translate(-1.60714 1.07143) rotate(-8.1301) scale(41.6688 8.91253)">
<stop offset="0.156701" stop-color="#406ADC"/>
<stop offset="0.467799" stop-color="#6A45BE"/>
<stop offset="1" stop-color="#6A45BE" stop-opacity="0"/>
</radialGradient>
</defs>
</svg>
