<svg width="63" height="30" viewBox="0 0 63 30" fill="none" xmlns="http://www.w3.org/2000/svg">
<path d="M12.5561 3.73115C13.3747 2.7427 13.9272 1.36899 13.777 0C12.5939 0.0483035 11.1636 0.786994 10.3213 1.77191C9.55821 2.64609 8.89807 4.04571 9.08026 5.38761C10.3958 5.48893 11.7374 4.7196 12.5561 3.73115ZM15.9549 12.4187C15.9289 9.45806 18.3802 8.03369 18.4938 7.96301C17.1108 5.96018 14.9659 5.68214 14.2017 5.65151C12.3739 5.47125 10.6312 6.72361 9.70728 6.72361C8.77977 6.72361 7.35301 5.67978 5.83398 5.71159C3.84173 5.73987 2.00446 6.86499 0.978754 8.64043C-1.08566 12.2255 0.454664 17.52 2.47058 20.4194C3.45724 21.8391 4.63082 23.4343 6.17706 23.3765C7.66534 23.3188 8.22374 22.4175 10.022 22.4175C11.8166 22.4152 12.3242 23.3742 13.8917 23.3471C15.4912 23.3129 16.5062 21.898 17.487 20.4713C18.6144 18.8278 19.0817 17.2314 19.1054 17.1513C19.0735 17.1301 15.9904 15.959 15.9549 12.4187ZM34.9973 3.72997C34.401 3.1574 33.632 2.71206 32.7116 2.40575C31.7995 2.10297 30.704 1.94981 29.4559 1.94981C28.6564 1.94627 27.8574 1.98757 27.0626 2.07352C26.3999 2.14716 25.7395 2.23948 25.0822 2.35038L24.8893 2.38337V23.1975H26.7976V14.4286C27.44 14.5382 28.1758 14.5959 28.9874 14.5959C30.0675 14.5959 31.079 14.4581 31.9947 14.1883C32.8757 13.9388 33.6962 13.5126 34.4058 12.9359C35.0892 12.367 35.6389 11.6555 36.0159 10.8518C36.4063 10.0271 36.605 9.05749 36.605 7.96654C36.605 7.06409 36.4619 6.25236 36.1827 5.55372C35.9128 4.87361 35.5098 4.25368 34.9973 3.72997ZM33.244 11.68C32.2644 12.4976 30.8779 12.9123 29.1187 12.9123C28.6348 12.9123 28.177 12.8911 27.757 12.8523C27.434 12.8232 27.1136 12.7696 26.7988 12.692V3.84072C27.0507 3.79477 27.3631 3.75118 27.7298 3.7123C28.1948 3.66282 28.7543 3.63808 29.3955 3.63808C30.1319 3.63077 30.8657 3.72553 31.5759 3.91965C32.1811 4.08542 32.7497 4.36276 33.2523 4.73728C33.7101 5.09072 34.0698 5.55019 34.3194 6.10391C34.5714 6.6647 34.698 7.33388 34.698 8.09142C34.6968 9.66423 34.207 10.8718 33.244 11.68ZM48.0108 21.2488C47.9895 20.6598 47.9812 20.0683 47.9812 19.4793V13.6934C47.9812 13.0078 47.9114 12.308 47.7754 11.6129C47.6442 10.9212 47.3755 10.2627 46.9851 9.67601C46.597 9.09637 46.054 8.61805 45.375 8.25283C44.6959 7.88878 43.8133 7.705 42.7498 7.705C41.9737 7.705 41.2154 7.80514 40.4996 8.00424C39.748 8.21954 39.037 8.55625 38.395 9.00094L38.24 9.10815L38.8848 10.6103L39.1178 10.4536C39.6267 10.1134 40.1832 9.84983 40.7694 9.6713C41.3618 9.48673 41.9788 9.3922 42.5995 9.3909C43.3945 9.3909 44.0298 9.53464 44.4829 9.81739C44.9431 10.1037 45.2898 10.4583 45.5134 10.873C45.7464 11.3007 45.8991 11.7554 45.9665 12.2279C46.0387 12.7191 46.073 13.1586 46.073 13.5356V13.7029C43.2443 13.6899 41.0355 14.1588 39.5686 15.1001C38.0294 16.0874 37.2486 17.4929 37.2486 19.2766C37.2486 19.7903 37.3409 20.3075 37.5231 20.8188C37.7076 21.336 37.988 21.799 38.3548 22.1949C38.7239 22.5954 39.2006 22.9218 39.7709 23.1656C40.3387 23.4119 41.0072 23.5356 41.7537 23.5356C42.8106 23.5532 43.8506 23.2699 44.7515 22.7191C45.1443 22.4776 45.4933 22.2031 45.7914 21.9074C45.9185 21.7803 46.0397 21.6474 46.1546 21.5092H46.2279L46.403 23.1986H48.2427L48.1918 22.9277C48.0908 22.3731 48.0303 21.8121 48.0108 21.2488ZM46.073 18.2846C46.073 18.4873 46.0245 18.7653 45.9322 19.0987C45.8086 19.4595 45.6359 19.8016 45.4187 20.1155C44.9354 20.8202 44.2336 21.3478 43.4206 21.6176C42.9272 21.7791 42.4102 21.8576 41.8909 21.8497C41.5484 21.8498 41.2084 21.792 40.8853 21.6788C40.5717 21.5702 40.2838 21.3986 40.0394 21.1746C39.7835 20.9336 39.5812 20.6418 39.4455 20.3181C39.2953 19.9729 39.2196 19.5452 39.2196 19.0481C39.2196 18.234 39.4396 17.573 39.8714 17.09C40.3365 16.5753 40.9203 16.181 41.5726 15.9413C42.3116 15.6646 43.0849 15.489 43.8713 15.4194C44.603 15.3491 45.3379 15.3173 46.073 15.324V18.2846ZM60.9616 8.04312L57.4006 17.6838C57.1782 18.2658 56.9712 18.8525 56.7819 19.4239C56.6896 19.709 56.6021 19.9788 56.5157 20.2356H56.4483C56.3593 19.9543 56.2686 19.6735 56.1762 19.3933C55.9916 18.8278 55.7929 18.2729 55.5894 17.7439L51.7812 8.04312H49.7451L55.1931 21.9899C55.3362 22.3256 55.3575 22.48 55.3575 22.5424C55.3575 22.5613 55.3504 22.6755 55.1907 23.0997C54.8931 23.8565 54.5051 24.5748 54.0349 25.2392C53.5983 25.8306 53.1985 26.3113 52.8424 26.6659C52.4283 27.0782 52.0012 27.4164 51.567 27.672C51.1234 27.9324 50.7188 28.1433 50.3603 28.3023L50.1545 28.3942L50.8182 30L51.0287 29.9222C51.2015 29.8574 51.5256 29.7102 52.0178 29.471C52.5147 29.2271 53.0648 28.8407 53.6516 28.3176C54.1715 27.8616 54.6332 27.3437 55.0263 26.7754C55.4285 26.2005 55.8307 25.5254 56.2259 24.7762C56.6163 24.028 57.0067 23.1774 57.3876 22.2455C57.7686 21.3089 58.1779 20.2615 58.6002 19.1364L63 8.04312H60.9616Z" fill="black"/>
</svg>
