<svg width="16" height="32" viewBox="0 0 16 32" fill="none" xmlns="http://www.w3.org/2000/svg">
<path d="M2.7289 31.2237C2.217 31.2247 1.72091 31.048 1.32674 30.7244C1.1049 30.5422 0.921523 30.3184 0.787109 30.0659C0.652696 29.8134 0.569889 29.537 0.543433 29.2527C0.516976 28.9685 0.54739 28.6818 0.632931 28.4092C0.718472 28.1365 0.857458 27.8833 1.04193 27.664L10.857 16.0298L1.39247 4.37392C1.21049 4.1519 1.07458 3.89644 0.992576 3.62221C0.910568 3.34798 0.884072 3.06041 0.914611 2.776C0.94515 2.4916 1.03212 2.21598 1.17052 1.96498C1.30893 1.71399 1.49604 1.49256 1.7211 1.31344C1.94778 1.11584 2.21324 0.966798 2.50081 0.875658C2.78839 0.784519 3.09188 0.753255 3.39223 0.783827C3.69258 0.814399 3.98332 0.906148 4.24618 1.05332C4.50904 1.20048 4.73837 1.39989 4.91976 1.63903L15.5016 14.6623C15.8238 15.0507 16 15.5379 16 16.0406C16 16.5434 15.8238 17.0306 15.5016 17.4189L4.54731 30.4423C4.32753 30.7049 4.04834 30.9126 3.7324 31.0483C3.41645 31.1841 3.07266 31.2442 2.7289 31.2237Z" fill="#231F20"/>
</svg>
