<svg width="40" height="30" viewBox="0 0 40 30" fill="none" xmlns="http://www.w3.org/2000/svg">
<path d="M20.1818 12.8368C20.1606 14.5084 21.6716 15.4413 22.8098 15.9959C23.9792 16.565 24.372 16.9299 24.3676 17.4388C24.3586 18.2177 23.4347 18.5614 22.5699 18.5748C21.0611 18.5982 20.184 18.1675 19.4866 17.8416L18.9432 20.3848C19.6428 20.7072 20.9384 20.9885 22.2819 21.0007C25.4355 21.0007 27.4988 19.444 27.51 17.0303C27.5222 13.9672 23.2729 13.7976 23.3019 12.4284C23.3119 12.0132 23.7081 11.5702 24.5763 11.4575C25.0059 11.4006 26.1921 11.3571 27.5367 11.9764L28.0646 9.51584C27.3415 9.25249 26.4119 9.00029 25.2547 9.00029C22.2864 9.00029 20.1986 10.5782 20.1818 12.8368ZM33.1364 9.21232C32.5605 9.21232 32.0751 9.5482 31.8586 10.0638L27.3537 20.82H30.5051L31.1322 19.087H34.9832L35.347 20.82H38.1245L35.7007 9.21232H33.1364ZM33.5771 12.348L34.4866 16.7067H31.9959L33.5771 12.348ZM16.361 9.21232L13.877 20.82H16.8799L19.3627 9.21232H16.361ZM11.9185 9.21232L8.79289 17.1129L7.52857 10.3952C7.38015 9.64529 6.7943 9.21232 6.14373 9.21232H1.034L0.962585 9.54932C2.01154 9.77696 3.20332 10.1441 3.92531 10.5369C4.36721 10.7768 4.49331 10.9866 4.63838 11.5568L7.03311 20.82H10.2067L15.0721 9.21232H11.9185Z" fill="#1A1A1A"/>
<path d="M0.962585 0H39.2V4.00015H0.962585V0Z" fill="#1B2073"/>
<path d="M0.962585 25.9998H39.2V29.9999H0.962585V25.9998Z" fill="#F7B802"/>
</svg>
