<svg width="51" height="50" viewBox="0 0 51 50" fill="none" xmlns="http://www.w3.org/2000/svg">
<path d="M25.8247 -0.00283261C39.5458 0.00333204 50.6666 11.1279 50.6666 24.8499C50.6666 31.7074 47.8893 37.9162 43.3982 42.4128L43.3984 42.4125C38.8726 47.0952 32.5354 50.0026 25.5194 50.0026C11.7936 50.0026 0.666626 38.8756 0.666626 25.1498C0.666626 18.1364 3.57168 11.8015 8.24414 7.28291L8.25108 7.27626C12.7236 2.7799 18.9152 -0.00292969 25.7567 -0.00292969C25.7807 -0.00292969 25.8046 -0.00292969 25.8284 -0.00283261H25.8247H25.8247ZM25.8247 46.389C37.7204 46.389 47.3637 36.7456 47.3637 24.8499C47.3637 12.9542 37.7204 3.31093 25.8247 3.31093C13.929 3.31093 4.28566 12.9542 4.28566 24.8498C4.2995 36.7399 13.9346 46.375 25.8233 46.3889H25.8247V46.389ZM32.1428 32.8249H15.2871V29.5112H32.1428C35.8824 29.5112 38.9138 26.4797 38.9138 22.7402C38.9138 19.0006 35.8824 15.9691 32.1428 15.9691H15.2871V12.6555H32.1428C37.7125 12.6555 42.2275 17.1705 42.2275 22.7401C42.2275 28.3097 37.7124 32.8248 32.1428 32.8248V32.8249ZM22.5308 40.7778L12.9477 31.1681L22.5309 21.5583L24.877 23.8978L17.6267 31.1681L24.877 38.4361L22.5308 40.7778Z" fill="#C55C10"/>
</svg>
