<svg width="51" height="48" viewBox="0 0 51 48" fill="none" xmlns="http://www.w3.org/2000/svg">
<path d="M47.6845 17.3147C46.2326 12.5898 43.3183 8.44794 39.3613 5.48583C35.4043 2.52372 30.6091 0.894346 25.6666 0.83252C20.7242 0.894346 15.9289 2.52372 11.972 5.48583C8.015 8.44794 5.10061 12.5898 3.64877 17.3147C2.76226 17.6957 2.00712 18.3287 1.477 19.135C0.946882 19.9413 0.66511 20.8854 0.666632 21.8504V26.2432C0.667867 27.0994 0.890502 27.9407 1.31291 28.6854C1.73532 29.43 2.34315 30.0528 3.07735 30.4932C3.84247 30.9541 4.71986 31.1951 5.61306 31.1897H8.27377C8.27377 31.5647 8.39877 31.9575 8.48806 32.3325C10.2738 39.9575 16.0059 45.7968 22.9523 47.0111C23.2449 47.0862 23.5438 47.134 23.8452 47.1539C24.1485 47.1715 24.4526 47.1715 24.7559 47.1539H26.5416C26.8449 47.1715 27.149 47.1715 27.4523 47.1539C27.7537 47.134 28.0526 47.0862 28.3452 47.0111C30.8591 46.5197 33.2368 45.4894 35.3145 43.9913C37.3922 42.4931 39.1206 40.5626 40.3809 38.3325H41.8273C43.2173 38.3095 44.5439 37.7472 45.5269 36.7642C46.5098 35.7812 47.0722 34.4546 47.0952 33.0647V30.9932C47.5011 30.8746 47.8909 30.7067 48.2559 30.4932C48.9901 30.0528 49.5979 29.43 50.0203 28.6854C50.4427 27.9407 50.6654 27.0994 50.6666 26.2432V21.8504C50.6681 20.8854 50.3864 19.9413 49.8563 19.135C49.3261 18.3287 48.571 17.6957 47.6845 17.3147ZM25.6666 4.40395C29.5846 4.44569 33.4007 5.65824 36.6241 7.88573C39.8476 10.1132 42.3313 13.2539 43.7559 16.9039H41.5773H41.3631C40.0385 13.8088 37.8576 11.1563 35.077 9.25823C32.2964 7.3602 29.0316 6.29561 25.6666 6.18966C22.3016 6.29561 19.0369 7.3602 16.2562 9.25823C13.4756 11.1563 11.2948 13.8088 9.9702 16.9039H9.75592H7.57734C9.00194 13.2539 11.4856 10.1132 14.7091 7.88573C17.9326 5.65824 21.7486 4.44569 25.6666 4.40395ZM39.3631 21.9754C36.7329 21.5127 34.2312 20.4962 32.0238 18.9932C30.1034 17.68 28.4442 16.0208 27.1309 14.1004C26.9663 13.8646 26.7473 13.6721 26.4923 13.5391C26.2374 13.4062 25.9541 13.3367 25.6666 13.3367C25.3791 13.3367 25.0958 13.4062 24.8409 13.5391C24.586 13.6721 24.3669 13.8646 24.2023 14.1004C22.8891 16.0208 21.2299 17.68 19.3095 18.9932C17.1021 20.4962 14.6003 21.5127 11.9702 21.9754C13.7559 15.0111 19.2023 9.9218 25.6666 9.9218C32.1309 9.9218 37.6131 15.0111 39.3631 21.9754ZM7.80949 27.6182H5.61306C5.43183 27.6206 5.25195 27.5867 5.08404 27.5185C4.91614 27.4502 4.7636 27.349 4.63544 27.2208C4.50728 27.0927 4.40608 26.9402 4.33783 26.7722C4.26958 26.6043 4.23566 26.4245 4.23806 26.2432V21.8504C4.23566 21.6691 4.26958 21.4893 4.33783 21.3214C4.40608 21.1534 4.50728 21.0009 4.63544 20.8727C4.7636 20.7446 4.91614 20.6434 5.08404 20.5751C5.25195 20.5069 5.43183 20.473 5.61306 20.4754H7.80949V27.6182ZM25.6666 43.5289C17.7916 43.5289 11.3809 35.9932 11.3809 26.7254C11.3809 26.3682 11.3809 26.0111 11.3809 25.6718C14.9195 25.2299 18.3033 23.9571 21.2559 21.9575C22.8978 20.8614 24.3818 19.5456 25.6666 18.0468C26.935 19.5419 28.4008 20.8575 30.0238 21.9575C32.9921 23.965 36.3952 25.2381 39.9523 25.6718V26.7254C39.9561 29.5028 39.3464 32.2467 38.1666 34.7611H32.2738C31.9652 34.2265 31.5234 33.781 30.9913 33.468C30.4593 33.155 29.8552 32.9853 29.2381 32.9754H25.6666C24.7194 32.9754 23.811 33.3516 23.1412 34.0214C22.4715 34.6912 22.0952 35.5996 22.0952 36.5468C22.0952 37.494 22.4715 38.4024 23.1412 39.0722C23.811 39.7419 24.7194 40.1182 25.6666 40.1182H29.2381C29.8613 40.1145 30.4727 39.9477 31.0116 39.6344C31.5504 39.3211 31.9979 38.8723 32.3095 38.3325H35.9702C34.7522 39.9157 33.1938 41.2048 31.4103 42.1043C29.6268 43.0038 27.6638 43.4907 25.6666 43.5289ZM42.113 34.7611C42.4028 33.9842 42.6473 33.1912 42.8452 32.3861C42.9345 32.0111 42.988 31.6182 43.0595 31.2432H43.5238V33.1182C43.5204 33.5145 43.3769 33.8969 43.1187 34.1975C42.8605 34.4982 42.5043 34.6979 42.113 34.7611ZM47.0952 26.2432C47.0976 26.4245 47.0637 26.6043 46.9954 26.7722C46.9272 26.9402 46.826 27.0927 46.6978 27.2208C46.5696 27.349 46.4171 27.4502 46.2492 27.5185C46.0813 27.5867 45.9014 27.6206 45.7202 27.6182H43.5238V20.4754H45.7202C45.9014 20.473 46.0813 20.5069 46.2492 20.5751C46.4171 20.6434 46.5696 20.7446 46.6978 20.8727C46.826 21.0009 46.9272 21.1534 46.9954 21.3214C47.0637 21.4893 47.0976 21.6691 47.0952 21.8504V26.2432Z" fill="#C55C10"/>
</svg>
